<mxfile host="65bd71144e">
    <diagram id="RzKq9KF5NWwgLoKb3BY6" name="Page-1">
        <mxGraphModel dx="205" dy="192" grid="1" gridSize="10" guides="1" tooltips="1" connect="1" arrows="1" fold="1" page="1" pageScale="1" pageWidth="1654" pageHeight="1169" math="0" shadow="0">
            <root>
                <mxCell id="0"/>
                <mxCell id="1" parent="0"/>
                <mxCell id="46" value="Ajouter un contact avec le QR Code" style="shape=umlFrame;whiteSpace=wrap;html=1;width=120;height=30;boundedLbl=1;verticalAlign=middle;align=left;spacingLeft=5;" parent="1" vertex="1">
                    <mxGeometry x="392" y="354" width="878" height="536" as="geometry"/>
                </mxCell>
                <mxCell id="2" value="&lt;u&gt;: utilisateur&lt;/u&gt;" style="shape=umlActor;verticalLabelPosition=bottom;verticalAlign=top;html=1;" parent="1" vertex="1">
                    <mxGeometry x="456" y="416" width="30" height="60" as="geometry"/>
                </mxCell>
                <mxCell id="3" value="&amp;lt;&amp;lt;boundary&amp;gt;&amp;gt;&lt;br&gt;Pokematos" style="shape=umlLifeline;perimeter=lifelinePerimeter;whiteSpace=wrap;html=1;container=1;collapsible=0;recursiveResize=0;outlineConnect=0;" parent="1" vertex="1">
                    <mxGeometry x="579" y="416" width="100" height="414" as="geometry"/>
                </mxCell>
                <mxCell id="12" value="" style="endArrow=none;dashed=1;html=1;exitX=0.09;exitY=0.888;exitDx=0;exitDy=0;exitPerimeter=0;" parent="1" source="46" edge="1">
                    <mxGeometry width="50" height="50" relative="1" as="geometry">
                        <mxPoint x="471" y="754" as="sourcePoint"/>
                        <mxPoint x="471" y="506" as="targetPoint"/>
                    </mxGeometry>
                </mxCell>
                <mxCell id="13" value="" style="endArrow=classic;html=1;entryX=0.004;entryY=0.001;entryDx=0;entryDy=0;entryPerimeter=0;" parent="1" target="58" edge="1">
                    <mxGeometry width="50" height="50" relative="1" as="geometry">
                        <mxPoint x="471" y="536" as="sourcePoint"/>
                        <mxPoint x="572" y="536" as="targetPoint"/>
                    </mxGeometry>
                </mxCell>
                <mxCell id="14" value="1 : appuie sur &quot;Pokematos&quot; -&amp;gt; loadDataCallback()&amp;nbsp;" style="edgeLabel;html=1;align=center;verticalAlign=middle;resizable=0;points=[];" parent="13" vertex="1" connectable="0">
                    <mxGeometry x="-0.5904" y="-1" relative="1" as="geometry">
                        <mxPoint x="165" y="-9" as="offset"/>
                    </mxGeometry>
                </mxCell>
                <mxCell id="15" value="&amp;lt;&amp;lt;Control&amp;gt;&amp;gt;&lt;br&gt;PokestackDataBase" style="shape=umlLifeline;perimeter=lifelinePerimeter;whiteSpace=wrap;html=1;container=1;collapsible=0;recursiveResize=0;outlineConnect=0;" parent="1" vertex="1">
                    <mxGeometry x="1075" y="416" width="115" height="424" as="geometry"/>
                </mxCell>
                <mxCell id="16" value="" style="html=1;points=[];perimeter=orthogonalPerimeter;" parent="15" vertex="1">
                    <mxGeometry x="52.5" y="240" width="10" height="60" as="geometry"/>
                </mxCell>
                <mxCell id="58" value="" style="html=1;points=[];perimeter=orthogonalPerimeter;" parent="15" vertex="1">
                    <mxGeometry x="52" y="120" width="10" height="40" as="geometry"/>
                </mxCell>
                <mxCell id="48" value="&amp;lt;&amp;lt;boundary&amp;gt;&amp;gt;&lt;br&gt;ScanScreen" style="shape=umlLifeline;perimeter=lifelinePerimeter;whiteSpace=wrap;html=1;container=1;collapsible=0;recursiveResize=0;outlineConnect=0;" parent="1" vertex="1">
                    <mxGeometry x="807" y="416" width="100" height="424" as="geometry"/>
                </mxCell>
                <mxCell id="49" value="" style="html=1;points=[];perimeter=orthogonalPerimeter;" parent="48" vertex="1">
                    <mxGeometry x="45" y="200" width="10" height="40" as="geometry"/>
                </mxCell>
                <mxCell id="59" value="" style="endArrow=classic;html=1;exitX=-0.008;exitY=1;exitDx=0;exitDy=0;exitPerimeter=0;" parent="1" source="58" edge="1" target="3">
                    <mxGeometry width="50" height="50" relative="1" as="geometry">
                        <mxPoint x="690" y="560" as="sourcePoint"/>
                        <mxPoint x="634.9200000000001" y="576" as="targetPoint"/>
                    </mxGeometry>
                </mxCell>
                <mxCell id="60" value="2 : setUsers(storedusers)" style="edgeLabel;html=1;align=center;verticalAlign=middle;resizable=0;points=[];" parent="59" vertex="1" connectable="0">
                    <mxGeometry x="0.2518" y="-2" relative="1" as="geometry">
                        <mxPoint y="-7" as="offset"/>
                    </mxGeometry>
                </mxCell>
                <mxCell id="61" value="" style="endArrow=classic;html=1;entryX=-0.056;entryY=-0.007;entryDx=0;entryDy=0;entryPerimeter=0;" parent="1" target="49" edge="1">
                    <mxGeometry width="50" height="50" relative="1" as="geometry">
                        <mxPoint x="470" y="616" as="sourcePoint"/>
                        <mxPoint x="730" y="620" as="targetPoint"/>
                    </mxGeometry>
                </mxCell>
                <mxCell id="63" value="3 : appuie sur le bouton QR Code&lt;br&gt;setAfficheScan(!afficheScan)&amp;nbsp;" style="edgeLabel;html=1;align=center;verticalAlign=middle;resizable=0;points=[];" parent="61" vertex="1" connectable="0">
                    <mxGeometry x="0.0382" y="-1" relative="1" as="geometry">
                        <mxPoint y="-17" as="offset"/>
                    </mxGeometry>
                </mxCell>
                <mxCell id="71" value="" style="endArrow=classic;html=1;exitX=1.018;exitY=1.006;exitDx=0;exitDy=0;exitPerimeter=0;entryX=-0.05;entryY=0.013;entryDx=0;entryDy=0;entryPerimeter=0;" edge="1" parent="1" source="49" target="16">
                    <mxGeometry width="50" height="50" relative="1" as="geometry">
                        <mxPoint x="960" y="680" as="sourcePoint"/>
                        <mxPoint x="1120" y="656" as="targetPoint"/>
                    </mxGeometry>
                </mxCell>
                <mxCell id="72" value="4 : l'utilisateur scan un QR Code - &amp;gt; onSuccess" style="edgeLabel;html=1;align=center;verticalAlign=middle;resizable=0;points=[];" vertex="1" connectable="0" parent="71">
                    <mxGeometry x="-0.2597" y="3" relative="1" as="geometry">
                        <mxPoint x="28" y="-5" as="offset"/>
                    </mxGeometry>
                </mxCell>
                <mxCell id="73" value="" style="endArrow=classic;html=1;exitX=-0.027;exitY=1.007;exitDx=0;exitDy=0;exitPerimeter=0;" edge="1" parent="1" source="16" target="3">
                    <mxGeometry width="50" height="50" relative="1" as="geometry">
                        <mxPoint x="950" y="760" as="sourcePoint"/>
                        <mxPoint x="1000" y="710" as="targetPoint"/>
                    </mxGeometry>
                </mxCell>
                <mxCell id="74" value="5 : setAfficheScan(!afficheScan) + Toast.show('Contact correctement ajoutÃ©!')" style="edgeLabel;html=1;align=center;verticalAlign=middle;resizable=0;points=[];" vertex="1" connectable="0" parent="73">
                    <mxGeometry x="0.3608" y="1" relative="1" as="geometry">
                        <mxPoint x="102" y="-9" as="offset"/>
                    </mxGeometry>
                </mxCell>
            </root>
        </mxGraphModel>
    </diagram>
</mxfile>